<?xml version="1.0" encoding="UTF-8"?>
<svg xmlns="http://www.w3.org/2000/svg" xmlns:xlink="http://www.w3.org/1999/xlink" width="32px" height="32px" viewBox="0 0 32 32" version="1.1">
<defs>
<filter id="alpha" filterUnits="objectBoundingBox" x="0%" y="0%" width="100%" height="100%">
  <feColorMatrix type="matrix" in="SourceGraphic" values="0 0 0 0 1 0 0 0 0 1 0 0 0 0 1 0 0 0 1 0"/>
</filter>
<mask id="mask0">
  <g filter="url(#alpha)">
<rect x="0" y="0" width="32" height="32" style="fill:rgb(0%,0%,0%);fill-opacity:0.101961;stroke:none;"/>
  </g>
</mask>
<clipPath id="clip1">
  <rect x="0" y="0" width="32" height="32"/>
</clipPath>
<g id="surface5" clip-path="url(#clip1)">
<path style=" stroke:none;fill-rule:nonzero;fill:rgb(0%,0%,0%);fill-opacity:1;" d="M 3.992188 16 C 3.992188 8.039062 10.003906 1.480469 17.734375 0.617188 C 17.164062 0.554688 16.585938 0.519531 16 0.519531 C 7.449219 0.519531 0.519531 7.449219 0.519531 16 C 0.519531 24.550781 7.449219 31.480469 16 31.480469 C 16.585938 31.480469 17.164062 31.445312 17.734375 31.382812 C 10.003906 30.519531 3.992188 23.960938 3.992188 16 Z M 3.992188 16 "/>
</g>
</defs>
<g id="surface1">
<path style=" stroke:none;fill-rule:nonzero;fill:rgb(100%,84.313726%,50.196081%);fill-opacity:1;" d="M 16 0.519531 C 7.449219 0.519531 0.519531 7.449219 0.519531 16 C 0.519531 24.550781 7.449219 31.480469 16 31.480469 C 24.550781 31.480469 31.480469 24.550781 31.480469 16 C 31.480469 7.449219 24.550781 0.519531 16 0.519531 Z M 16 0.519531 "/>
<use xlink:href="#surface5" mask="url(#mask0)"/>
<path style=" stroke:none;fill-rule:nonzero;fill:rgb(100%,100%,100%);fill-opacity:1;" d="M 24.175781 18.589844 L 18.0625 18.589844 L 18.0625 22.175781 L 7.460938 16 L 18.0625 9.824219 L 18.0625 13.410156 L 24.175781 13.410156 Z M 24.175781 18.589844 "/>
<path style=" stroke:none;fill-rule:nonzero;fill:rgb(0%,0%,0%);fill-opacity:1;" d="M 16 32 C 11.726562 32 7.707031 30.335938 4.6875 27.3125 C 1.664062 24.292969 0 20.273438 0 16 C 0 11.699219 1.683594 7.664062 4.738281 4.632812 C 4.945312 4.429688 5.273438 4.433594 5.476562 4.636719 C 5.679688 4.839844 5.675781 5.171875 5.472656 5.375 C 2.613281 8.203125 1.042969 11.980469 1.042969 16 C 1.042969 19.996094 2.597656 23.753906 5.421875 26.578125 C 8.246094 29.402344 12.003906 30.957031 16 30.957031 C 19.570312 30.957031 23.023438 29.679688 25.730469 27.359375 C 25.949219 27.171875 26.277344 27.199219 26.464844 27.417969 C 26.652344 27.632812 26.628906 27.964844 26.410156 28.148438 C 23.515625 30.632812 19.816406 32 16 32 Z M 27.554688 26.816406 C 27.433594 26.816406 27.308594 26.773438 27.210938 26.683594 C 26.996094 26.492188 26.976562 26.164062 27.167969 25.949219 C 29.613281 23.207031 30.957031 19.675781 30.957031 16 C 30.957031 12.003906 29.402344 8.246094 26.578125 5.421875 C 23.753906 2.597656 19.996094 1.042969 16 1.042969 C 12.722656 1.042969 9.609375 2.082031 6.996094 4.050781 C 6.769531 4.226562 6.441406 4.179688 6.269531 3.949219 C 6.09375 3.722656 6.140625 3.394531 6.371094 3.222656 C 9.164062 1.113281 12.492188 0 16 0 C 20.273438 0 24.292969 1.664062 27.3125 4.6875 C 30.335938 7.707031 32 11.726562 32 16 C 32 19.929688 30.558594 23.710938 27.945312 26.644531 C 27.84375 26.757812 27.699219 26.816406 27.554688 26.816406 Z M 18.0625 22.695312 C 17.972656 22.695312 17.878906 22.671875 17.800781 22.625 L 7.199219 16.449219 C 7.039062 16.355469 6.941406 16.183594 6.941406 16 C 6.941406 15.816406 7.039062 15.644531 7.199219 15.550781 L 17.800781 9.375 C 17.960938 9.28125 18.160156 9.28125 18.320312 9.375 C 18.484375 9.464844 18.582031 9.640625 18.582031 9.824219 L 18.582031 12.886719 L 24.175781 12.886719 C 24.460938 12.886719 24.695312 13.121094 24.695312 13.410156 L 24.695312 18.589844 C 24.695312 18.878906 24.460938 19.113281 24.175781 19.113281 L 18.582031 19.113281 L 18.582031 22.175781 C 18.582031 22.359375 18.484375 22.535156 18.320312 22.625 C 18.242188 22.671875 18.152344 22.695312 18.0625 22.695312 Z M 8.496094 16 L 17.539062 21.269531 L 17.539062 18.589844 C 17.539062 18.304688 17.773438 18.070312 18.0625 18.070312 L 23.65625 18.070312 L 23.65625 13.929688 L 18.0625 13.929688 C 17.773438 13.929688 17.539062 13.695312 17.539062 13.410156 L 17.539062 10.730469 Z M 8.496094 16 "/>
</g>
</svg>
