<?xml version="1.0" encoding="UTF-8"?>
<svg xmlns="http://www.w3.org/2000/svg" xmlns:xlink="http://www.w3.org/1999/xlink" width="32px" height="32px" viewBox="0 0 32 32" version="1.1">
<defs>
<filter id="alpha" filterUnits="objectBoundingBox" x="0%" y="0%" width="100%" height="100%">
  <feColorMatrix type="matrix" in="SourceGraphic" values="0 0 0 0 1 0 0 0 0 1 0 0 0 0 1 0 0 0 1 0"/>
</filter>
<mask id="mask0">
  <g filter="url(#alpha)">
<rect x="0" y="0" width="32" height="32" style="fill:rgb(0%,0%,0%);fill-opacity:0.101961;stroke:none;"/>
  </g>
</mask>
<clipPath id="clip1">
  <rect x="0" y="0" width="32" height="32"/>
</clipPath>
<g id="surface5" clip-path="url(#clip1)">
<path style=" stroke:none;fill-rule:nonzero;fill:rgb(46.27451%,31.764707%,31.764707%);fill-opacity:1;" d="M 6.570312 16 C 6.570312 9.464844 11.433594 4.066406 17.734375 3.21875 C 17.167969 3.140625 16.589844 3.101562 16 3.101562 C 8.875 3.101562 3.101562 8.875 3.101562 16 C 3.101562 23.125 8.875 28.898438 16 28.898438 C 16.589844 28.898438 17.167969 28.859375 17.734375 28.78125 C 11.433594 27.933594 6.570312 22.535156 6.570312 16 Z M 6.570312 16 "/>
</g>
</defs>
<g id="surface1">
<path style=" stroke:none;fill-rule:nonzero;fill:rgb(100%,57.647061%,50.196081%);fill-opacity:1;" d="M 16 28.898438 C 23.125 28.898438 28.898438 23.125 28.898438 16 C 28.898438 8.875 23.125 3.101562 16 3.101562 C 8.875 3.101562 3.101562 8.875 3.101562 16 C 3.101562 23.125 8.875 28.898438 16 28.898438 Z M 16 28.898438 "/>
<use xlink:href="#surface5" mask="url(#mask0)"/>
<path style=" stroke:none;fill-rule:nonzero;fill:rgb(100%,100%,100%);fill-opacity:1;" d="M 18.890625 16 L 22.289062 12.605469 C 22.535156 12.355469 22.535156 11.957031 22.289062 11.710938 L 20.289062 9.710938 C 20.042969 9.464844 19.644531 9.464844 19.394531 9.710938 L 16 13.109375 L 12.605469 9.710938 C 12.355469 9.464844 11.957031 9.464844 11.710938 9.710938 L 9.710938 11.710938 C 9.464844 11.957031 9.464844 12.355469 9.710938 12.605469 L 13.109375 16 L 9.710938 19.394531 C 9.464844 19.644531 9.464844 20.042969 9.710938 20.289062 L 11.710938 22.289062 C 11.957031 22.535156 12.355469 22.535156 12.605469 22.289062 L 16 18.890625 L 19.394531 22.289062 C 19.644531 22.535156 20.042969 22.535156 20.289062 22.289062 L 22.289062 20.289062 C 22.535156 20.042969 22.535156 19.644531 22.289062 19.394531 Z M 18.890625 16 "/>
<path style=" stroke:none;fill-rule:nonzero;fill:rgb(46.27451%,31.764707%,31.764707%);fill-opacity:1;" d="M 22.90625 12.15625 C 22.90625 11.871094 22.796875 11.605469 22.59375 11.402344 L 20.597656 9.40625 C 20.394531 9.203125 20.128906 9.09375 19.84375 9.09375 C 19.558594 9.09375 19.289062 9.203125 19.089844 9.40625 L 16 12.496094 L 12.910156 9.40625 C 12.710938 9.203125 12.441406 9.09375 12.15625 9.09375 C 11.871094 9.09375 11.605469 9.203125 11.402344 9.40625 L 9.40625 11.402344 C 8.988281 11.820312 8.988281 12.496094 9.40625 12.910156 L 12.496094 16 L 9.40625 19.089844 C 8.988281 19.503906 8.988281 20.179688 9.40625 20.597656 L 11.402344 22.59375 C 11.605469 22.796875 11.871094 22.90625 12.15625 22.90625 C 12.441406 22.90625 12.710938 22.796875 12.910156 22.59375 L 16 19.503906 L 19.089844 22.59375 C 19.289062 22.796875 19.558594 22.90625 19.84375 22.90625 C 20.128906 22.90625 20.394531 22.796875 20.597656 22.59375 L 22.59375 20.597656 C 22.796875 20.394531 22.90625 20.128906 22.90625 19.84375 C 22.90625 19.558594 22.796875 19.289062 22.59375 19.089844 L 19.503906 16 L 22.59375 12.910156 C 22.796875 12.710938 22.90625 12.441406 22.90625 12.15625 Z M 21.980469 12.296875 L 18.585938 15.691406 C 18.414062 15.863281 18.414062 16.136719 18.585938 16.308594 L 21.980469 19.703125 C 22.03125 19.753906 22.039062 19.8125 22.039062 19.84375 C 22.039062 19.875 22.03125 19.933594 21.980469 19.984375 L 19.984375 21.980469 C 19.933594 22.03125 19.875 22.039062 19.84375 22.039062 C 19.8125 22.039062 19.753906 22.03125 19.703125 21.980469 L 16.308594 18.585938 C 16.222656 18.5 16.109375 18.457031 16 18.457031 C 15.890625 18.457031 15.777344 18.5 15.691406 18.585938 L 12.296875 21.980469 C 12.246094 22.03125 12.1875 22.039062 12.15625 22.039062 C 12.125 22.039062 12.066406 22.03125 12.015625 21.980469 L 10.019531 19.984375 C 9.941406 19.90625 9.941406 19.78125 10.019531 19.703125 L 13.414062 16.308594 C 13.585938 16.136719 13.585938 15.863281 13.414062 15.691406 L 10.019531 12.296875 C 9.941406 12.21875 9.941406 12.09375 10.019531 12.015625 L 12.015625 10.019531 C 12.066406 9.96875 12.125 9.960938 12.15625 9.960938 C 12.1875 9.960938 12.246094 9.96875 12.296875 10.019531 L 15.691406 13.414062 C 15.863281 13.585938 16.136719 13.585938 16.308594 13.414062 L 19.703125 10.019531 C 19.753906 9.96875 19.8125 9.960938 19.84375 9.960938 C 19.875 9.960938 19.933594 9.96875 19.984375 10.019531 L 21.980469 12.015625 C 22.03125 12.066406 22.039062 12.125 22.039062 12.15625 C 22.039062 12.1875 22.03125 12.246094 21.980469 12.296875 Z M 21.980469 12.296875 "/>
<path style=" stroke:none;fill-rule:nonzero;fill:rgb(46.27451%,31.764707%,31.764707%);fill-opacity:1;" d="M 24.746094 6.507812 C 24.578125 6.679688 24.578125 6.953125 24.75 7.121094 C 27.144531 9.484375 28.464844 12.636719 28.464844 16 C 28.464844 19.328125 27.167969 22.460938 24.816406 24.816406 C 22.460938 27.167969 19.328125 28.464844 16 28.464844 C 14.15625 28.464844 12.382812 28.074219 10.722656 27.296875 C 10.507812 27.195312 10.25 27.289062 10.148438 27.503906 C 10.046875 27.722656 10.140625 27.980469 10.355469 28.082031 C 12.128906 28.914062 14.027344 29.332031 16 29.332031 C 19.5625 29.332031 22.910156 27.945312 25.429688 25.429688 C 27.945312 22.910156 29.332031 19.5625 29.332031 16 C 29.332031 12.402344 27.921875 9.03125 25.359375 6.503906 C 25.1875 6.335938 24.914062 6.335938 24.746094 6.507812 Z M 24.746094 6.507812 "/>
<path style=" stroke:none;fill-rule:nonzero;fill:rgb(46.27451%,31.764707%,31.764707%);fill-opacity:1;" d="M 8.726562 27.175781 C 8.800781 27.222656 8.882812 27.246094 8.960938 27.246094 C 9.105469 27.246094 9.242188 27.175781 9.328125 27.046875 C 9.457031 26.847656 9.402344 26.578125 9.199219 26.449219 C 5.652344 24.132812 3.535156 20.230469 3.535156 16 C 3.535156 12.671875 4.832031 9.539062 7.183594 7.183594 C 9.539062 4.832031 12.671875 3.535156 16 3.535156 C 18.71875 3.535156 21.304688 4.394531 23.476562 6.023438 C 23.667969 6.167969 23.9375 6.128906 24.082031 5.9375 C 24.226562 5.746094 24.1875 5.472656 23.996094 5.328125 C 21.675781 3.585938 18.910156 2.667969 16 2.667969 C 12.4375 2.667969 9.089844 4.054688 6.570312 6.570312 C 4.054688 9.089844 2.667969 12.4375 2.667969 16 C 2.667969 20.523438 4.933594 24.699219 8.726562 27.175781 Z M 8.726562 27.175781 "/>
</g>
</svg>
