<?xml version="1.0" encoding="UTF-8"?>
<svg xmlns="http://www.w3.org/2000/svg" xmlns:xlink="http://www.w3.org/1999/xlink" width="32px" height="32px" viewBox="0 0 32 32" version="1.1">
<defs>
<filter id="alpha" filterUnits="objectBoundingBox" x="0%" y="0%" width="100%" height="100%">
  <feColorMatrix type="matrix" in="SourceGraphic" values="0 0 0 0 1 0 0 0 0 1 0 0 0 0 1 0 0 0 1 0"/>
</filter>
<mask id="mask0">
  <g filter="url(#alpha)">
<rect x="0" y="0" width="32" height="32" style="fill:rgb(0%,0%,0%);fill-opacity:0.101961;stroke:none;"/>
  </g>
</mask>
<clipPath id="clip1">
  <rect x="0" y="0" width="32" height="32"/>
</clipPath>
<g id="surface5" clip-path="url(#clip1)">
<path style="fill-rule:nonzero;fill:rgb(46.27451%,31.764707%,31.764707%);fill-opacity:1;stroke-width:1;stroke-linecap:butt;stroke-linejoin:miter;stroke:rgb(46.27451%,31.764707%,31.764707%);stroke-opacity:1;stroke-miterlimit:4;" d="M 138.850007 334.150015 C 148.825007 344.050015 162.550008 349.900015 177.475008 349.900015 L 180.100008 349.900015 L 197.800009 294.700013 L 155.800007 281.275012 Z M 138.850007 334.150015 " transform="matrix(0.0520833,0,0,0.0520833,2.666667,2.666667)"/>
</g>
</defs>
<g id="surface1">
<path style="fill-rule:nonzero;fill:rgb(66.274512%,68.627453%,74.901962%);fill-opacity:1;stroke-width:1;stroke-linecap:butt;stroke-linejoin:miter;stroke:rgb(46.27451%,31.764707%,31.764707%);stroke-opacity:1;stroke-miterlimit:4;" d="M 197.800009 294.700013 L 179.875008 350.500015 L 465.02502 350.500015 C 477.17502 350.500015 487.075021 360.400016 487.075021 372.550016 C 487.075021 384.700017 477.17502 394.600017 465.02502 394.600017 L 149.650007 394.600017 C 142.675007 394.600017 136.000007 391.225017 131.875007 385.525017 C 127.750006 379.900016 126.550006 372.550016 128.650006 365.800016 L 155.800007 281.275012 Z M 197.800009 294.700013 " transform="matrix(0.0520833,0,0,0.0520833,2.666667,2.666667)"/>
<path style="fill-rule:nonzero;fill:rgb(100%,84.313726%,50.196081%);fill-opacity:1;stroke-width:1;stroke-linecap:butt;stroke-linejoin:miter;stroke:rgb(46.27451%,31.764707%,31.764707%);stroke-opacity:1;stroke-miterlimit:4;" d="M 466.45002 82.750005 L 114.250006 82.750005 L 180.925008 297.250013 L 430.525018 297.250013 L 492.850021 120.025006 C 499.225021 101.875005 485.725021 82.750005 466.45002 82.750005 Z M 466.45002 82.750005 " transform="matrix(0.0520833,0,0,0.0520833,2.666667,2.666667)"/>
<use xlink:href="#surface5" mask="url(#mask0)"/>
<path style="fill-rule:nonzero;fill:rgb(78.039217%,81.176472%,88.627452%);fill-opacity:1;stroke-width:1;stroke-linecap:butt;stroke-linejoin:miter;stroke:rgb(46.27451%,31.764707%,31.764707%);stroke-opacity:1;stroke-miterlimit:4;" d="M 481.67502 316.825014 L 177.475008 316.825014 C 167.800008 316.825014 159.175008 310.450014 156.400007 301.150013 L 90.550005 81.925005 L 30.325002 81.925005 C 18.175002 81.925005 8.275002 72.100004 8.275002 59.875004 C 8.275002 47.725003 18.175002 37.825003 30.325002 37.825003 L 106.900006 37.825003 C 116.650006 37.825003 125.200006 44.200003 128.050006 53.575003 L 193.900009 272.725012 L 481.67502 272.725012 C 493.825021 272.725012 503.725021 282.625013 503.725021 294.775013 C 503.725021 306.925013 493.825021 316.825014 481.67502 316.825014 Z M 481.67502 316.825014 " transform="matrix(0.0520833,0,0,0.0520833,2.666667,2.666667)"/>
<path style="fill-rule:nonzero;fill:rgb(63.921571%,45.882353%,45.882353%);fill-opacity:1;stroke-width:1;stroke-linecap:butt;stroke-linejoin:miter;stroke:rgb(46.27451%,31.764707%,31.764707%);stroke-opacity:1;stroke-miterlimit:4;" d="M 251.950011 424.000018 C 251.950011 396.325017 229.52501 373.900016 201.850009 373.900016 C 174.175008 373.900016 151.675007 396.325017 151.675007 424.000018 C 151.675007 451.675019 174.175008 474.17502 201.850009 474.17502 C 229.52501 474.17502 251.950011 451.675019 251.950011 424.000018 Z M 251.950011 424.000018 " transform="matrix(0.0520833,0,0,0.0520833,2.666667,2.666667)"/>
<path style="fill-rule:nonzero;fill:rgb(78.039217%,81.176472%,88.627452%);fill-opacity:1;stroke-width:1;stroke-linecap:butt;stroke-linejoin:miter;stroke:rgb(46.27451%,31.764707%,31.764707%);stroke-opacity:1;stroke-miterlimit:4;" d="M 222.77501 424.000018 C 222.77501 412.450018 213.40001 403.075017 201.850009 403.075017 C 190.300009 403.075017 180.925008 412.450018 180.925008 424.000018 C 180.925008 435.625019 190.300009 445.000019 201.850009 445.000019 C 213.40001 445.000019 222.77501 435.625019 222.77501 424.000018 Z M 222.77501 424.000018 " transform="matrix(0.0520833,0,0,0.0520833,2.666667,2.666667)"/>
<path style="fill-rule:nonzero;fill:rgb(63.921571%,45.882353%,45.882353%);fill-opacity:1;stroke-width:1;stroke-linecap:butt;stroke-linejoin:miter;stroke:rgb(46.27451%,31.764707%,31.764707%);stroke-opacity:1;stroke-miterlimit:4;" d="M 443.275019 424.000018 C 443.275019 396.325017 420.775018 373.900016 393.100017 373.900016 C 365.425016 373.900016 343.000015 396.325017 343.000015 424.000018 C 343.000015 451.675019 365.425016 474.17502 393.100017 474.17502 C 420.775018 474.17502 443.275019 451.675019 443.275019 424.000018 Z M 443.275019 424.000018 " transform="matrix(0.0520833,0,0,0.0520833,2.666667,2.666667)"/>
<path style="fill-rule:nonzero;fill:rgb(78.039217%,81.176472%,88.627452%);fill-opacity:1;stroke-width:1;stroke-linecap:butt;stroke-linejoin:miter;stroke:rgb(46.27451%,31.764707%,31.764707%);stroke-opacity:1;stroke-miterlimit:4;" d="M 414.100018 424.000018 C 414.100018 412.450018 404.725017 403.075017 393.100017 403.075017 C 381.550016 403.075017 372.175016 412.450018 372.175016 424.000018 C 372.175016 435.625019 381.550016 445.000019 393.100017 445.000019 C 404.725017 445.000019 414.100018 435.625019 414.100018 424.000018 Z M 414.100018 424.000018 " transform="matrix(0.0520833,0,0,0.0520833,2.666667,2.666667)"/>
<path style="fill-rule:nonzero;fill:rgb(46.27451%,31.764707%,31.764707%);fill-opacity:1;stroke-width:1;stroke-linecap:butt;stroke-linejoin:miter;stroke:rgb(46.27451%,31.764707%,31.764707%);stroke-opacity:1;stroke-miterlimit:4;" d="M 201.850009 394.825017 C 185.725009 394.825017 172.600008 407.950017 172.600008 424.000018 C 172.600008 440.125019 185.725009 453.250019 201.850009 453.250019 C 217.90001 453.250019 231.02501 440.125019 231.02501 424.000018 C 231.02501 407.950017 217.90001 394.825017 201.850009 394.825017 Z M 201.850009 436.675019 C 194.875009 436.675019 189.175009 431.050018 189.175009 424.000018 C 189.175009 417.025018 194.875009 411.400018 201.850009 411.400018 C 208.82501 411.400018 214.52501 417.025018 214.52501 424.000018 C 214.52501 431.050018 208.82501 436.675019 201.850009 436.675019 Z M 201.850009 436.675019 " transform="matrix(0.0520833,0,0,0.0520833,2.666667,2.666667)"/>
<path style="fill-rule:nonzero;fill:rgb(46.27451%,31.764707%,31.764707%);fill-opacity:1;stroke-width:1;stroke-linecap:butt;stroke-linejoin:miter;stroke:rgb(46.27451%,31.764707%,31.764707%);stroke-opacity:1;stroke-miterlimit:4;" d="M 393.100017 394.825017 C 377.050016 394.825017 363.925016 407.950017 363.925016 424.000018 C 363.925016 440.125019 377.050016 453.250019 393.100017 453.250019 C 409.225018 453.250019 422.350018 440.125019 422.350018 424.000018 C 422.350018 407.950017 409.225018 394.825017 393.100017 394.825017 Z M 393.100017 436.675019 C 386.125017 436.675019 380.500016 431.050018 380.500016 424.000018 C 380.500016 417.025018 386.125017 411.400018 393.100017 411.400018 C 400.150017 411.400018 405.775017 417.025018 405.775017 424.000018 C 405.775017 431.050018 400.150017 436.675019 393.100017 436.675019 Z M 393.100017 436.675019 " transform="matrix(0.0520833,0,0,0.0520833,2.666667,2.666667)"/>
<path style="fill-rule:nonzero;fill:rgb(46.27451%,31.764707%,31.764707%);fill-opacity:1;stroke-width:1;stroke-linecap:butt;stroke-linejoin:miter;stroke:rgb(46.27451%,31.764707%,31.764707%);stroke-opacity:1;stroke-miterlimit:4;" d="M 237.475011 82.750005 C 237.475011 87.325005 241.150011 91.075005 245.725011 91.075005 L 466.45002 91.075005 C 472.90002 91.075005 478.75002 94.075005 482.50002 99.400005 C 486.250021 104.650005 487.150021 111.175006 485.050021 117.325006 L 457.150019 196.525009 C 455.650019 200.800009 457.900019 205.525009 462.25002 207.025009 C 463.15002 207.40001 464.05002 207.55001 464.95002 207.55001 C 468.40002 207.55001 471.62502 205.375009 472.82502 202.000009 L 500.650021 122.800006 C 504.550021 111.550006 502.900021 99.550005 496.000021 89.800005 C 489.100021 80.050004 478.37502 74.500004 466.45002 74.500004 L 245.725011 74.500004 C 241.150011 74.500004 237.475011 78.175004 237.475011 82.750005 Z M 237.475011 82.750005 " transform="matrix(0.0520833,0,0,0.0520833,2.666667,2.666667)"/>
<path style="fill-rule:nonzero;fill:rgb(46.27451%,31.764707%,31.764707%);fill-opacity:1;stroke-width:1;stroke-linecap:butt;stroke-linejoin:miter;stroke:rgb(46.27451%,31.764707%,31.764707%);stroke-opacity:1;stroke-miterlimit:4;" d="M 102.625005 150.925007 C 103.900005 155.275007 108.550006 157.825008 112.900006 156.475007 C 117.250006 155.125007 119.800006 150.550007 118.450006 146.200007 L 98.425005 79.600004 C 97.375005 76.075004 94.150005 73.675004 90.475005 73.675004 L 30.325002 73.675004 C 22.750002 73.675004 16.525002 67.525004 16.525002 59.875004 C 16.525002 52.300003 22.750002 46.150003 30.325002 46.150003 L 106.900006 46.150003 C 113.050006 46.150003 118.375006 50.050003 120.100006 55.900003 L 185.950009 275.125012 C 187.000009 278.575012 190.225009 280.975012 193.900009 280.975012 L 481.67502 280.975012 C 489.250021 280.975012 495.475021 287.200013 495.475021 294.775013 C 495.475021 302.350013 489.250021 308.575014 481.67502 308.575014 L 177.475008 308.575014 C 171.475008 308.575014 166.075008 304.525013 164.275008 298.750013 L 163.375008 295.600013 L 128.425006 179.275008 C 127.075006 174.850008 122.500006 172.375008 118.075006 173.725008 C 113.725006 175.000008 111.250006 179.650008 112.525006 184.000009 L 144.325007 289.825013 L 120.775006 363.325016 C 117.850006 372.475016 119.500006 382.600016 125.200006 390.400017 C 130.450006 397.600017 138.625007 402.100017 147.475007 402.775017 C 144.850007 409.375018 143.425007 416.500018 143.425007 424.000018 C 143.425007 456.250019 169.600008 482.42502 201.850009 482.42502 C 234.025011 482.42502 260.200012 456.250019 260.200012 424.000018 C 260.200012 416.575018 258.775012 409.450018 256.225011 402.850017 L 338.725015 402.850017 C 336.175015 409.450018 334.750015 416.575018 334.750015 424.000018 C 334.750015 456.250019 360.925016 482.42502 393.100017 482.42502 C 425.350018 482.42502 451.525019 456.250019 451.525019 424.000018 C 451.525019 416.575018 450.100019 409.450018 447.550019 402.850017 L 465.02502 402.850017 C 481.75002 402.850017 495.325021 389.275017 495.325021 372.550016 C 495.325021 355.825015 481.75002 342.250015 465.02502 342.250015 L 191.275009 342.250015 L 196.750009 325.075014 L 481.67502 325.075014 C 498.400021 325.075014 511.975022 311.500014 511.975022 294.775013 C 511.975022 278.050012 498.400021 264.475012 481.67502 264.475012 L 450.850019 264.475012 L 461.12502 235.075011 C 462.70002 230.72501 460.37502 226.00001 456.100019 224.50001 C 451.825019 223.00001 447.100019 225.25001 445.525019 229.60001 L 433.300018 264.475012 L 200.050009 264.475012 L 147.925007 91.075005 L 212.65001 91.075005 C 217.22501 91.075005 220.90001 87.325005 220.90001 82.750005 C 220.90001 78.175004 217.22501 74.500004 212.65001 74.500004 L 142.975007 74.500004 L 135.925007 51.175003 C 132.100007 38.275003 120.400006 29.575002 106.900006 29.575002 L 30.325002 29.575002 C 13.600002 29.575002 0.0250013 43.150003 0.0250013 59.875004 C 0.0250013 76.600004 13.600002 90.250005 30.325002 90.250005 L 84.400005 90.250005 Z M 201.850009 465.85002 C 178.750008 465.85002 160.000008 447.100019 160.000008 424.000018 C 160.000008 414.700018 163.000008 406.075017 168.175008 399.175017 C 176.050008 388.600017 188.725009 382.150016 201.850009 382.150016 C 214.90001 382.150016 227.65001 388.675017 235.450011 399.175017 C 240.625011 406.075017 243.700011 414.700018 243.700011 424.000018 C 243.700011 447.100019 224.87501 465.85002 201.850009 465.85002 Z M 393.100017 465.85002 C 370.075016 465.85002 351.250015 447.100019 351.250015 424.000018 C 351.250015 407.500017 361.750016 391.975017 376.900016 385.525017 C 382.000016 383.350017 387.550017 382.150016 393.100017 382.150016 C 411.325018 382.150016 428.050018 394.600017 433.225018 412.075018 C 434.425019 415.975018 434.950019 419.950018 434.950019 424.000018 C 434.950019 447.100019 416.200018 465.85002 393.100017 465.85002 Z M 465.02502 358.750016 C 472.60002 358.750016 478.82502 364.975016 478.82502 372.550016 C 478.82502 380.125016 472.60002 386.350017 465.02502 386.350017 L 437.725019 386.350017 C 436.975019 386.350017 434.050019 382.375016 433.450018 381.775016 C 422.650018 371.575016 408.025017 365.650016 393.100017 365.650016 C 380.425016 365.650016 367.975016 369.850016 357.850015 377.500016 C 354.475015 380.125016 351.325015 383.050016 348.550015 386.350017 L 246.400011 386.350017 C 236.125011 374.200016 220.82501 366.625016 204.925009 365.725016 C 203.875009 365.650016 202.825009 365.650016 201.850009 365.650016 C 186.775009 365.650016 172.000008 371.650016 161.200008 382.150016 C 160.150008 383.125016 159.175008 384.175017 158.275008 385.225017 C 157.900008 385.600017 157.600008 385.975017 157.225008 386.350017 L 149.650007 386.350017 C 145.300007 386.350017 141.100007 384.250017 138.550007 380.650016 C 136.000007 377.125016 135.250007 372.550016 136.525007 368.350016 L 154.000007 313.975014 C 153.625007 315.100014 156.175007 316.675014 156.850008 317.200014 C 159.925008 319.525014 163.300008 321.700014 166.900008 323.125014 C 170.950008 324.700014 175.075008 325.075014 179.350008 325.075014 L 172.000008 347.950015 C 171.250008 350.500015 171.700008 353.275015 173.200008 355.375015 C 174.775008 357.475015 177.250008 358.750016 179.875008 358.750016 Z M 465.02502 358.750016 " transform="matrix(0.0520833,0,0,0.0520833,2.666667,2.666667)"/>
</g>
</svg>
