<?xml version="1.0" encoding="UTF-8"?>
<svg xmlns="http://www.w3.org/2000/svg" xmlns:xlink="http://www.w3.org/1999/xlink" width="32px" height="32px" viewBox="0 0 32 32" version="1.1">
<defs>
<filter id="alpha" filterUnits="objectBoundingBox" x="0%" y="0%" width="100%" height="100%">
  <feColorMatrix type="matrix" in="SourceGraphic" values="0 0 0 0 1 0 0 0 0 1 0 0 0 0 1 0 0 0 1 0"/>
</filter>
<mask id="mask0">
  <g filter="url(#alpha)">
<rect x="0" y="0" width="32" height="32" style="fill:rgb(0%,0%,0%);fill-opacity:0.101961;stroke:none;"/>
  </g>
</mask>
<clipPath id="clip1">
  <rect x="0" y="0" width="32" height="32"/>
</clipPath>
<g id="surface5" clip-path="url(#clip1)">
<path style=" stroke:none;fill-rule:nonzero;fill:rgb(0%,0%,0%);fill-opacity:1;" d="M 29.914062 7.761719 L 11.859375 25.816406 C 11.359375 26.316406 10.730469 26.65625 10.054688 26.808594 C 10.621094 27.210938 11.300781 27.433594 12.003906 27.433594 C 12.898438 27.433594 13.757812 27.078125 14.390625 26.445312 L 31.492188 9.339844 Z M 29.914062 7.761719 "/>
</g>
</defs>
<g id="surface1">
<path style=" stroke:none;fill-rule:nonzero;fill:rgb(81.176472%,92.54902%,49.411765%);fill-opacity:1;" d="M 26.722656 4.566406 L 12.6875 18.601562 C 12.3125 18.976562 11.699219 18.976562 11.320312 18.601562 L 5.277344 12.558594 L 0.507812 17.332031 L 9.617188 26.445312 C 10.25 27.078125 11.109375 27.433594 12.003906 27.433594 C 12.898438 27.433594 13.757812 27.078125 14.390625 26.445312 L 31.492188 9.339844 Z M 26.722656 4.566406 "/>
<use xlink:href="#surface5" mask="url(#mask0)"/>
<path style=" stroke:none;fill-rule:nonzero;fill:rgb(0%,0%,0%);fill-opacity:1;" d="M 12.003906 27.9375 C 10.96875 27.9375 9.992188 27.535156 9.261719 26.800781 L 0.148438 17.691406 C -0.0507812 17.492188 -0.0507812 17.171875 0.148438 16.972656 L 4.921875 12.203125 C 5.117188 12.003906 5.4375 12.003906 5.636719 12.203125 L 7.429688 13.992188 C 7.625 14.191406 7.625 14.511719 7.429688 14.707031 C 7.230469 14.90625 6.910156 14.90625 6.710938 14.707031 L 5.277344 13.273438 L 1.222656 17.332031 L 9.976562 26.085938 C 10.519531 26.628906 11.238281 26.925781 12.003906 26.925781 C 12.769531 26.925781 13.492188 26.628906 14.03125 26.085938 L 25.71875 14.402344 C 25.914062 14.203125 26.234375 14.203125 26.433594 14.402344 C 26.632812 14.597656 26.632812 14.917969 26.433594 15.117188 L 14.75 26.800781 C 14.015625 27.535156 13.039062 27.9375 12.003906 27.9375 Z M 12.003906 27.9375 "/>
<path style=" stroke:none;fill-rule:nonzero;fill:rgb(0%,0%,0%);fill-opacity:1;" d="M 12.003906 19.390625 C 11.609375 19.390625 11.238281 19.234375 10.960938 18.957031 L 8.144531 16.140625 C 7.945312 15.941406 7.945312 15.621094 8.144531 15.425781 C 8.34375 15.226562 8.664062 15.226562 8.859375 15.425781 L 11.675781 18.242188 C 11.765625 18.328125 11.878906 18.378906 12.003906 18.378906 C 12.128906 18.378906 12.242188 18.328125 12.332031 18.242188 L 26.363281 4.210938 C 26.5625 4.011719 26.882812 4.011719 27.078125 4.210938 L 31.851562 8.984375 C 31.945312 9.078125 32 9.207031 32 9.339844 C 32 9.476562 31.945312 9.605469 31.851562 9.699219 L 27.863281 13.683594 C 27.667969 13.882812 27.347656 13.882812 27.148438 13.683594 C 26.953125 13.488281 26.953125 13.167969 27.148438 12.96875 L 30.777344 9.339844 L 26.722656 5.285156 L 13.046875 18.957031 C 12.769531 19.234375 12.398438 19.390625 12.003906 19.390625 Z M 12.003906 19.390625 "/>
</g>
</svg>
