<?xml version="1.0" encoding="UTF-8"?>
<svg xmlns="http://www.w3.org/2000/svg" xmlns:xlink="http://www.w3.org/1999/xlink" width="32px" height="32px" viewBox="0 0 32 32" version="1.1">
<defs>
<filter id="alpha" filterUnits="objectBoundingBox" x="0%" y="0%" width="100%" height="100%">
  <feColorMatrix type="matrix" in="SourceGraphic" values="0 0 0 0 1 0 0 0 0 1 0 0 0 0 1 0 0 0 1 0"/>
</filter>
<mask id="mask0">
  <g filter="url(#alpha)">
<rect x="0" y="0" width="32" height="32" style="fill:rgb(0%,0%,0%);fill-opacity:0.101961;stroke:none;"/>
  </g>
</mask>
<clipPath id="clip1">
  <rect x="0" y="0" width="32" height="32"/>
</clipPath>
<g id="surface5" clip-path="url(#clip1)">
<path style=" stroke:none;fill-rule:nonzero;fill:rgb(46.27451%,31.764707%,31.764707%);fill-opacity:1;" d="M 10.179688 16.992188 C 8.808594 14.234375 8.484375 11.714844 9.242188 9.710938 C 9.640625 8.660156 10.328125 7.808594 11.214844 7.207031 C 11.144531 7.207031 11.074219 7.207031 11.007812 7.207031 C 8.664062 7.207031 6.789062 8.519531 6.234375 10.558594 C 5.769531 12.273438 6.234375 14.332031 7.585938 16.503906 C 9.167969 19.046875 11.914062 21.621094 15.589844 24.023438 C 13.148438 21.660156 11.3125 19.28125 10.179688 16.992188 Z M 10.179688 16.992188 "/>
</g>
</defs>
<g id="surface1">
<path style=" stroke:none;fill-rule:nonzero;fill:rgb(100%,57.647061%,50.196081%);fill-opacity:1;" d="M 16 27.722656 C 38.566406 14.441406 26.753906 -0.304688 16 5.628906 C 5.246094 -0.304688 -6.566406 14.441406 16 27.722656 Z M 16 27.722656 "/>
<path style=" stroke:none;fill-rule:nonzero;fill:rgb(90.196079%,41.176471%,35.686275%);fill-opacity:1;" d="M 16 24.289062 C 12.117188 21.8125 9.226562 19.140625 7.585938 16.503906 C 6.234375 14.332031 5.769531 12.273438 6.234375 10.558594 C 6.789062 8.519531 8.664062 7.203125 11.007812 7.203125 C 12.175781 7.203125 13.414062 7.546875 14.585938 8.191406 L 16 8.972656 L 17.414062 8.191406 C 18.585938 7.546875 19.824219 7.203125 20.992188 7.203125 C 23.335938 7.203125 25.207031 8.519531 25.761719 10.558594 C 26.230469 12.273438 25.765625 14.332031 24.414062 16.503906 C 22.773438 19.140625 19.882812 21.8125 16 24.289062 Z M 16 24.289062 "/>
<use xlink:href="#surface5" mask="url(#mask0)"/>
<path style=" stroke:none;fill-rule:nonzero;fill:rgb(46.27451%,31.764707%,31.764707%);fill-opacity:1;" d="M 22.722656 3.972656 C 20.519531 3.550781 18.203125 3.941406 16.003906 5.097656 C 13.703125 3.890625 11.203125 3.519531 8.929688 4.046875 C 6.664062 4.574219 4.8125 5.921875 3.710938 7.851562 C 2.851562 9.363281 1.742188 12.566406 4 17.042969 C 4.933594 18.894531 6.34375 20.738281 8.191406 22.523438 C 10.210938 24.472656 12.757812 26.359375 15.765625 28.128906 C 15.839844 28.171875 15.921875 28.191406 16.003906 28.191406 C 16.085938 28.191406 16.167969 28.171875 16.242188 28.128906 C 18.019531 27.078125 19.65625 25.980469 21.101562 24.859375 C 21.304688 24.703125 21.34375 24.40625 21.183594 24.203125 C 21.023438 24 20.730469 23.960938 20.527344 24.121094 C 19.179688 25.167969 17.65625 26.195312 16.003906 27.179688 C 10.539062 23.925781 6.679688 20.277344 4.835938 16.621094 C 3.308594 13.59375 3.199219 10.644531 4.527344 8.3125 C 5.492188 6.617188 7.132812 5.425781 9.140625 4.957031 C 11.261719 4.464844 13.621094 4.847656 15.777344 6.039062 C 15.917969 6.117188 16.089844 6.117188 16.230469 6.039062 C 18.300781 4.894531 20.488281 4.5 22.546875 4.890625 C 24.464844 5.253906 26.101562 6.285156 27.15625 7.796875 C 28.390625 9.574219 28.71875 11.878906 28.074219 14.292969 C 27.304688 17.160156 25.191406 20.152344 21.960938 22.949219 C 21.765625 23.117188 21.742188 23.414062 21.914062 23.609375 C 22.082031 23.804688 22.378906 23.824219 22.574219 23.65625 C 25.945312 20.734375 28.160156 17.582031 28.976562 14.535156 C 29.695312 11.851562 29.320312 9.265625 27.921875 7.261719 C 26.730469 5.550781 24.882812 4.382812 22.722656 3.972656 Z M 22.722656 3.972656 "/>
<path style=" stroke:none;fill-rule:nonzero;fill:rgb(46.27451%,31.764707%,31.764707%);fill-opacity:1;" d="M 7.558594 9.089844 C 7.730469 8.898438 7.714844 8.601562 7.523438 8.429688 C 7.332031 8.257812 7.035156 8.273438 6.863281 8.464844 C 6.351562 9.027344 5.988281 9.691406 5.789062 10.4375 C 5.285156 12.28125 5.769531 14.464844 7.191406 16.753906 C 8.859375 19.433594 11.820312 22.175781 15.75 24.683594 C 15.828125 24.734375 15.914062 24.757812 16.003906 24.757812 C 16.089844 24.757812 16.179688 24.734375 16.253906 24.683594 C 20.1875 22.175781 23.148438 19.433594 24.8125 16.753906 C 26.234375 14.464844 26.722656 12.28125 26.21875 10.4375 C 25.605469 8.191406 23.554688 6.738281 20.996094 6.738281 C 19.746094 6.738281 18.429688 7.101562 17.191406 7.785156 L 16.003906 8.441406 L 14.816406 7.785156 C 13.574219 7.101562 12.261719 6.738281 11.007812 6.738281 C 10.121094 6.738281 9.289062 6.910156 8.535156 7.253906 C 8.300781 7.359375 8.195312 7.636719 8.300781 7.871094 C 8.40625 8.109375 8.683594 8.210938 8.921875 8.105469 C 9.554688 7.820312 10.257812 7.675781 11.007812 7.675781 C 12.101562 7.675781 13.261719 7.996094 14.363281 8.601562 L 15.777344 9.382812 C 15.917969 9.460938 16.089844 9.460938 16.230469 9.382812 L 17.644531 8.601562 C 18.746094 7.996094 19.90625 7.675781 20.996094 7.675781 C 23.121094 7.675781 24.816406 8.855469 25.316406 10.683594 C 25.746094 12.269531 25.300781 14.199219 24.019531 16.257812 C 22.460938 18.761719 19.691406 21.34375 16.003906 23.734375 C 12.3125 21.34375 9.546875 18.761719 7.988281 16.257812 C 6.707031 14.199219 6.257812 12.269531 6.691406 10.683594 C 6.855469 10.082031 7.144531 9.546875 7.558594 9.089844 Z M 7.558594 9.089844 "/>
</g>
</svg>
