<?xml version="1.0" encoding="UTF-8"?>
<svg xmlns="http://www.w3.org/2000/svg" xmlns:xlink="http://www.w3.org/1999/xlink" width="32px" height="32px" viewBox="0 0 32 32" version="1.1">
<g id="surface1">
<path style="fill:none;stroke-width:0.00032;stroke-linecap:butt;stroke-linejoin:miter;stroke:rgb(0%,0%,0%);stroke-opacity:1;stroke-miterlimit:4;" d="M 0.0117188 -0.238281 L 32.011719 -0.238281 L 32.011719 31.761719 L 0.0117188 31.761719 Z M 0.0117188 -0.238281 "/>
<path style="fill-rule:nonzero;fill:rgb(46.27451%,31.764707%,31.764707%);fill-opacity:1;stroke-width:0.00032;stroke-linecap:butt;stroke-linejoin:miter;stroke:rgb(0%,0%,0%);stroke-opacity:1;stroke-miterlimit:4;" d="M 25.890625 30.679688 L 16 25 L 6.140625 30.679688 L 6.140625 4.550781 C 6.140625 2.894531 7.484375 1.550781 9.140625 1.550781 L 22.890625 1.550781 C 24.546875 1.550781 25.890625 2.894531 25.890625 4.550781 Z M 9.140625 3.550781 C 8.585938 3.550781 8.140625 3.996094 8.140625 4.550781 L 8.140625 27.230469 L 16 22.71875 L 23.878906 27.230469 L 23.878906 4.550781 C 23.878906 3.996094 23.433594 3.550781 22.878906 3.550781 Z M 9.140625 3.550781 "/>
<path style="fill-rule:nonzero;fill:rgb(100%,84.313726%,50.196081%);fill-opacity:1;stroke-width:0.00032;stroke-linecap:butt;stroke-linejoin:miter;stroke:rgb(0%,0%,0%);stroke-opacity:1;stroke-miterlimit:4;" d="M 9.140625 2.550781 L 22.890625 2.550781 C 23.996094 2.550781 24.890625 3.445312 24.890625 4.550781 L 24.890625 8.621094 L 7.140625 8.621094 L 7.140625 4.550781 C 7.140625 3.445312 8.035156 2.550781 9.140625 2.550781 Z M 9.140625 2.550781 "/>
<path style="fill-rule:nonzero;fill:rgb(46.27451%,31.764707%,31.764707%);fill-opacity:1;stroke-width:0.00032;stroke-linecap:butt;stroke-linejoin:miter;stroke:rgb(0%,0%,0%);stroke-opacity:1;stroke-miterlimit:4;" d="M 25.890625 9.621094 L 6.140625 9.621094 L 6.140625 4.550781 C 6.140625 2.894531 7.484375 1.550781 9.140625 1.550781 L 22.890625 1.550781 C 24.546875 1.550781 25.890625 2.894531 25.890625 4.550781 Z M 8.140625 7.621094 L 23.890625 7.621094 L 23.890625 4.550781 C 23.890625 3.996094 23.441406 3.550781 22.890625 3.550781 L 9.140625 3.550781 C 8.585938 3.550781 8.140625 3.996094 8.140625 4.550781 Z M 8.140625 7.621094 "/>
<path style="fill-rule:nonzero;fill:rgb(46.27451%,31.764707%,31.764707%);fill-opacity:1;stroke-width:0.00032;stroke-linecap:butt;stroke-linejoin:miter;stroke:rgb(0%,0%,0%);stroke-opacity:1;stroke-miterlimit:4;" d="M 16 20.25 C 15.449219 20.25 15 19.800781 15 19.25 L 15 14.070312 C 15 13.519531 15.449219 13.070312 16 13.070312 C 16.550781 13.070312 17 13.519531 17 14.070312 L 17 19.25 C 17 19.800781 16.550781 20.25 16 20.25 Z M 16 20.25 "/>
<path style="fill-rule:nonzero;fill:rgb(46.27451%,31.764707%,31.764707%);fill-opacity:1;stroke-width:0.00032;stroke-linecap:butt;stroke-linejoin:miter;stroke:rgb(0%,0%,0%);stroke-opacity:1;stroke-miterlimit:4;" d="M 18.601562 17.660156 L 13.421875 17.660156 C 12.867188 17.660156 12.421875 17.210938 12.421875 16.660156 C 12.421875 16.109375 12.867188 15.660156 13.421875 15.660156 L 18.601562 15.660156 C 19.152344 15.660156 19.601562 16.109375 19.601562 16.660156 C 19.601562 17.210938 19.152344 17.660156 18.601562 17.660156 Z M 18.601562 17.660156 "/>
</g>
</svg>
