<?xml version="1.0" encoding="UTF-8"?>
<svg xmlns="http://www.w3.org/2000/svg" xmlns:xlink="http://www.w3.org/1999/xlink" width="32px" height="32px" viewBox="0 0 32 32" version="1.1">
<g id="surface1">
<path style="fill:none;stroke-width:0.00032;stroke-linecap:butt;stroke-linejoin:miter;stroke:rgb(0%,0%,0%);stroke-opacity:1;stroke-miterlimit:4;" d="M 0 0 L 32 0 L 32 32 L 0 32 Z M 0 0 "/>
<path style="fill-rule:nonzero;fill:rgb(46.27451%,31.764707%,31.764707%);fill-opacity:1;stroke-width:0.00032;stroke-linecap:butt;stroke-linejoin:miter;stroke:rgb(0%,0%,0%);stroke-opacity:1;stroke-miterlimit:4;" d="M 16.109375 30 L 6.578125 24.261719 L 6.578125 5.609375 C 6.519531 4.019531 7.75 2.679688 9.339844 2.609375 L 22.890625 2.609375 C 24.480469 2.679688 25.714844 4.019531 25.660156 5.609375 L 25.660156 24.351562 Z M 8.578125 23.101562 L 16.121094 27.671875 L 23.660156 23.179688 L 23.660156 5.609375 C 23.707031 5.125 23.371094 4.6875 22.890625 4.609375 L 9.339844 4.609375 C 8.929688 4.609375 8.578125 5.070312 8.578125 5.609375 Z M 8.578125 23.101562 "/>
<path style="fill-rule:nonzero;fill:rgb(46.27451%,31.764707%,31.764707%);fill-opacity:1;stroke-width:0.00032;stroke-linecap:butt;stroke-linejoin:miter;stroke:rgb(0%,0%,0%);stroke-opacity:1;stroke-miterlimit:4;" d="M 15.519531 20.71875 C 15.304688 20.71875 15.09375 20.648438 14.921875 20.519531 L 11.921875 18.28125 C 11.476562 17.949219 11.386719 17.320312 11.71875 16.878906 C 12.050781 16.4375 12.679688 16.347656 13.121094 16.679688 L 16.121094 18.921875 C 16.464844 19.179688 16.605469 19.628906 16.46875 20.035156 C 16.332031 20.445312 15.949219 20.71875 15.519531 20.71875 Z M 15.519531 20.71875 "/>
<path style="fill-rule:nonzero;fill:rgb(46.27451%,31.764707%,31.764707%);fill-opacity:1;stroke-width:0.00032;stroke-linecap:butt;stroke-linejoin:miter;stroke:rgb(0%,0%,0%);stroke-opacity:1;stroke-miterlimit:4;" d="M 15.519531 20.71875 C 15.300781 20.71875 15.085938 20.644531 14.910156 20.511719 C 14.476562 20.167969 14.402344 19.542969 14.738281 19.109375 L 18.921875 13.761719 C 19.261719 13.328125 19.890625 13.253906 20.324219 13.59375 C 20.757812 13.9375 20.832031 14.566406 20.488281 15 L 16.308594 20.339844 C 16.121094 20.582031 15.828125 20.722656 15.519531 20.71875 Z M 15.519531 20.71875 "/>
<path style="fill-rule:nonzero;fill:rgb(100%,57.647061%,50.196081%);fill-opacity:1;stroke-width:0.00032;stroke-linecap:butt;stroke-linejoin:miter;stroke:rgb(0%,0%,0%);stroke-opacity:1;stroke-miterlimit:4;" d="M 9.578125 3.609375 L 22.660156 3.609375 C 23.765625 3.609375 24.660156 4.503906 24.660156 5.609375 L 24.660156 9.859375 L 7.578125 9.859375 L 7.578125 5.609375 C 7.578125 4.503906 8.476562 3.609375 9.578125 3.609375 Z M 9.578125 3.609375 "/>
<path style="fill-rule:nonzero;fill:rgb(46.27451%,31.764707%,31.764707%);fill-opacity:1;stroke-width:0.00032;stroke-linecap:butt;stroke-linejoin:miter;stroke:rgb(0%,0%,0%);stroke-opacity:1;stroke-miterlimit:4;" d="M 25.660156 10.859375 L 6.578125 10.859375 L 6.578125 5.609375 C 6.578125 3.953125 7.921875 2.609375 9.578125 2.609375 L 22.660156 2.609375 C 24.316406 2.609375 25.660156 3.953125 25.660156 5.609375 Z M 8.578125 8.859375 L 23.660156 8.859375 L 23.660156 5.609375 C 23.660156 5.058594 23.210938 4.609375 22.660156 4.609375 L 9.578125 4.609375 C 9.027344 4.609375 8.578125 5.058594 8.578125 5.609375 Z M 8.578125 8.859375 "/>
</g>
</svg>
