<?xml version="1.0" encoding="UTF-8"?>
<svg xmlns="http://www.w3.org/2000/svg" xmlns:xlink="http://www.w3.org/1999/xlink" width="32px" height="32px" viewBox="0 0 32 32" version="1.1">
<defs>
<filter id="alpha" filterUnits="objectBoundingBox" x="0%" y="0%" width="100%" height="100%">
  <feColorMatrix type="matrix" in="SourceGraphic" values="0 0 0 0 1 0 0 0 0 1 0 0 0 0 1 0 0 0 1 0"/>
</filter>
<mask id="mask0">
  <g filter="url(#alpha)">
<rect x="0" y="0" width="32" height="32" style="fill:rgb(0%,0%,0%);fill-opacity:0.101961;stroke:none;"/>
  </g>
</mask>
<clipPath id="clip1">
  <rect x="0" y="0" width="32" height="32"/>
</clipPath>
<g id="surface5" clip-path="url(#clip1)">
<path style=" stroke:none;fill-rule:nonzero;fill:rgb(0%,0%,0%);fill-opacity:1;" d="M 6.015625 16 C 6.015625 9.371094 11.019531 3.910156 17.457031 3.1875 C 16.976562 3.132812 16.492188 3.105469 16 3.105469 C 8.878906 3.105469 3.105469 8.878906 3.105469 16 C 3.105469 23.121094 8.878906 28.894531 16 28.894531 C 16.492188 28.894531 16.976562 28.867188 17.457031 28.8125 C 11.019531 28.089844 6.015625 22.628906 6.015625 16 Z M 6.015625 16 "/>
</g>
</defs>
<g id="surface1">
<path style=" stroke:none;fill-rule:nonzero;fill:rgb(100%,95.686275%,85.882354%);fill-opacity:1;" d="M 28.898438 16 C 28.898438 8.878906 23.121094 3.105469 16 3.105469 C 8.878906 3.105469 3.105469 8.878906 3.105469 16 C 3.105469 23.121094 8.878906 28.898438 16 28.898438 C 23.121094 28.898438 28.898438 23.121094 28.898438 16 Z M 28.898438 16 "/>
<use xlink:href="#surface5" mask="url(#mask0)"/>
<path style=" stroke:none;fill-rule:nonzero;fill:rgb(100%,100%,100%);fill-opacity:1;" d="M 23.757812 13.675781 L 18.324219 13.675781 L 18.324219 8.242188 L 13.675781 8.242188 L 13.675781 13.675781 L 8.242188 13.675781 L 8.242188 18.324219 L 13.675781 18.324219 L 13.675781 23.757812 L 18.324219 23.757812 L 18.324219 18.324219 L 23.757812 18.324219 Z M 23.757812 13.675781 "/>
<path style=" stroke:none;fill-rule:nonzero;fill:rgb(0%,0%,0%);fill-opacity:1;" d="M 16 29.332031 C 12.4375 29.332031 9.089844 27.945312 6.570312 25.429688 C 4.054688 22.910156 2.667969 19.5625 2.667969 16 C 2.667969 14.085938 3.0625 12.238281 3.847656 10.507812 C 4.601562 8.835938 5.679688 7.359375 7.042969 6.125 C 7.222656 5.960938 7.496094 5.976562 7.660156 6.152344 C 7.820312 6.332031 7.808594 6.609375 7.628906 6.769531 C 5.03125 9.128906 3.539062 12.492188 3.539062 16 C 3.539062 19.328125 4.835938 22.457031 7.191406 24.808594 C 9.542969 27.164062 12.671875 28.460938 16 28.460938 C 18.816406 28.460938 21.472656 27.542969 23.683594 25.808594 C 23.871094 25.660156 24.148438 25.695312 24.296875 25.882812 C 24.445312 26.074219 24.410156 26.347656 24.222656 26.496094 C 21.855469 28.351562 19.011719 29.332031 16 29.332031 Z M 16 29.332031 "/>
<path style=" stroke:none;fill-rule:nonzero;fill:rgb(0%,0%,0%);fill-opacity:1;" d="M 8.730469 5.785156 C 8.589844 5.785156 8.453125 5.71875 8.367188 5.59375 C 8.234375 5.398438 8.28125 5.125 8.480469 4.988281 C 8.671875 4.851562 8.941406 4.894531 9.082031 5.085938 C 9.226562 5.28125 9.183594 5.554688 8.992188 5.699219 C 8.988281 5.699219 8.980469 5.707031 8.976562 5.707031 C 8.898438 5.761719 8.8125 5.785156 8.730469 5.785156 Z M 8.730469 5.785156 "/>
<path style=" stroke:none;fill-rule:nonzero;fill:rgb(0%,0%,0%);fill-opacity:1;" d="M 25.242188 25.429688 C 25.132812 25.429688 25.023438 25.386719 24.941406 25.304688 C 24.765625 25.136719 24.761719 24.859375 24.929688 24.6875 C 27.207031 22.347656 28.460938 19.261719 28.460938 16 C 28.460938 12.671875 27.164062 9.542969 24.808594 7.191406 C 22.457031 4.835938 19.328125 3.539062 16 3.539062 C 13.480469 3.539062 11.050781 4.289062 8.980469 5.707031 C 8.78125 5.84375 8.507812 5.789062 8.371094 5.589844 C 8.234375 5.390625 8.289062 5.121094 8.488281 4.984375 C 10.707031 3.46875 13.304688 2.667969 16 2.667969 C 19.5625 2.667969 22.910156 4.054688 25.429688 6.570312 C 27.945312 9.089844 29.332031 12.4375 29.332031 16 C 29.332031 19.492188 27.992188 22.792969 25.558594 25.296875 C 25.472656 25.382812 25.359375 25.429688 25.242188 25.429688 Z M 25.242188 25.429688 "/>
<path style=" stroke:none;fill-rule:nonzero;fill:rgb(0%,0%,0%);fill-opacity:1;" d="M 18.324219 24.195312 L 13.675781 24.195312 C 13.4375 24.195312 13.242188 24 13.242188 23.757812 L 13.242188 18.757812 L 8.242188 18.757812 C 8 18.757812 7.804688 18.5625 7.804688 18.324219 L 7.804688 13.675781 C 7.804688 13.4375 8 13.242188 8.242188 13.242188 L 13.242188 13.242188 L 13.242188 8.242188 C 13.242188 8 13.4375 7.804688 13.675781 7.804688 L 18.324219 7.804688 C 18.5625 7.804688 18.757812 8 18.757812 8.242188 L 18.757812 13.242188 L 23.757812 13.242188 C 24 13.242188 24.195312 13.4375 24.195312 13.675781 L 24.195312 18.324219 C 24.195312 18.5625 24 18.757812 23.757812 18.757812 L 18.757812 18.757812 L 18.757812 23.757812 C 18.757812 24 18.5625 24.195312 18.324219 24.195312 Z M 14.113281 23.320312 L 17.886719 23.320312 L 17.886719 18.324219 C 17.886719 18.082031 18.082031 17.886719 18.324219 17.886719 L 23.320312 17.886719 L 23.320312 14.113281 L 18.324219 14.113281 C 18.082031 14.113281 17.886719 13.917969 17.886719 13.675781 L 17.886719 8.679688 L 14.113281 8.679688 L 14.113281 13.675781 C 14.113281 13.917969 13.917969 14.113281 13.675781 14.113281 L 8.679688 14.113281 L 8.679688 17.886719 L 13.675781 17.886719 C 13.917969 17.886719 14.113281 18.082031 14.113281 18.324219 Z M 14.113281 23.320312 "/>
</g>
</svg>
