<?xml version="1.0" encoding="UTF-8"?>
<svg xmlns="http://www.w3.org/2000/svg" xmlns:xlink="http://www.w3.org/1999/xlink" width="32px" height="32px" viewBox="0 0 32 32" version="1.1">
<g id="surface1">
<path style="fill-rule:evenodd;fill:rgb(100%,86.666667%,58.431375%);fill-opacity:1;stroke-width:8;stroke-linecap:round;stroke-linejoin:round;stroke:rgb(46.27451%,31.764707%,31.764707%);stroke-opacity:1;stroke-miterlimit:10;" d="M 270.007324 157.983398 C 270.007324 91.73584 216.28418 38.012695 150 38.012695 C 83.71582 38.012695 29.992676 91.73584 29.992676 157.983398 C 29.992676 224.267578 83.71582 277.990723 150 277.990723 C 216.28418 277.990723 270.007324 224.267578 270.007324 157.983398 Z M 270.007324 157.983398 " transform="matrix(0.106667,0,0,0.106667,0,0)"/>
<path style="fill-rule:evenodd;fill:rgb(60.000002%,47.058824%,26.274511%);fill-opacity:1;stroke-width:8;stroke-linecap:round;stroke-linejoin:round;stroke:rgb(46.27451%,31.764707%,31.764707%);stroke-opacity:1;stroke-miterlimit:10;" d="M 163.110352 119.750977 C 159.008789 118.615723 154.614258 117.993164 150 117.993164 C 144.909668 117.993164 140.002441 118.762207 135.498047 120.153809 C 133.190918 115.283203 126.818848 102.941895 119.897461 97.998047 C 119.897461 97.998047 112.609863 117.114258 114.221191 135.644531 C 111.51123 139.96582 110.009766 144.836426 110.009766 150 C 110.009766 164.72168 122.424316 177.13623 139.379883 180.871582 C 122.424316 190.17334 110.009766 221.191406 110.009766 257.995605 C 110.009766 262.536621 110.192871 267.004395 110.559082 271.362305 C 122.900391 275.646973 136.193848 277.990723 150 277.990723 C 163.806152 277.990723 177.099609 275.646973 189.440918 271.362305 C 189.807129 267.004395 189.990234 262.536621 189.990234 257.995605 C 189.990234 221.191406 177.575684 190.17334 160.620117 180.871582 C 177.575684 177.13623 189.990234 164.72168 189.990234 150 C 189.990234 143.994141 187.939453 138.391113 184.350586 133.59375 C 185.302734 115.722656 178.564453 97.998047 178.564453 97.998047 C 171.789551 102.79541 165.600586 114.624023 163.110352 119.750977 Z M 163.110352 119.750977 " transform="matrix(0.106667,0,0,0.106667,0,0)"/>
<path style="fill-rule:evenodd;fill:rgb(100%,57.647061%,50.196081%);fill-opacity:1;stroke-width:8;stroke-linecap:round;stroke-linejoin:round;stroke:rgb(46.27451%,31.764707%,31.764707%);stroke-opacity:1;stroke-miterlimit:10;" d="M 277.990723 69.98291 C 277.990723 47.900391 260.083008 29.992676 238.000488 29.992676 C 215.917969 29.992676 198.010254 47.900391 198.010254 69.98291 C 198.010254 92.102051 215.917969 110.009766 238.000488 110.009766 C 260.083008 110.009766 277.990723 92.102051 277.990723 69.98291 Z M 277.990723 69.98291 " transform="matrix(0.106667,0,0,0.106667,0,0)"/>
<path style="fill:none;stroke-width:8;stroke-linecap:round;stroke-linejoin:round;stroke:rgb(46.27451%,31.764707%,31.764707%);stroke-opacity:1;stroke-miterlimit:10;" d="M 238.000488 94.006348 L 238.000488 45.996094 " transform="matrix(0.106667,0,0,0.106667,0,0)"/>
<path style="fill:none;stroke-width:8;stroke-linecap:round;stroke-linejoin:round;stroke:rgb(46.27451%,31.764707%,31.764707%);stroke-opacity:1;stroke-miterlimit:10;" d="M 214.013672 69.98291 L 261.987305 69.98291 " transform="matrix(0.106667,0,0,0.106667,0,0)"/>
</g>
</svg>
